<svg width="512" height="512" viewBox="0 0 512 512" fill="none" xmlns="http://www.w3.org/2000/svg">
  <rect width="512" height="512" rx="128" fill="#8b5cf6"/>
  <path d="M256 96C167.635 96 96 167.635 96 256C96 344.365 167.635 416 256 416C344.365 416 416 344.365 416 256C416 167.635 344.365 96 256 96ZM256 368C194.144 368 144 317.856 144 256C144 194.144 194.144 144 256 144C317.856 144 368 194.144 368 256C368 317.856 317.856 368 256 368Z" fill="white"/>
  <path d="M320 232H280V192C280 178.745 269.255 168 256 168C242.745 168 232 178.745 232 192V232H192C178.745 232 168 242.745 168 256C168 269.255 178.745 280 192 280H232V320C232 333.255 242.745 344 256 344C269.255 344 280 333.255 280 320V280H320C333.255 280 344 269.255 344 256C344 242.745 333.255 232 320 232Z" fill="white"/>
</svg>
